<?xml version="1.0" standalone="no"?>
<!DOCTYPE svg PUBLIC "-//W3C//DTD SVG 20010904//EN"
 "http://www.w3.org/TR/2001/REC-SVG-20010904/DTD/svg10.dtd">
<svg version="1.0" xmlns="http://www.w3.org/2000/svg"
 width="720.000000pt" height="720.000000pt" viewBox="0 0 720.000000 720.000000"
 preserveAspectRatio="xMidYMid meet">
<metadata>
Created by potrace 1.14, written by Peter Selinger 2001-2017
</metadata>
<g transform="translate(0.000000,720.000000) scale(0.100000,-0.100000)"
fill="#000000" stroke="none">
<path d="M3389 7096 c-2 -2 -44 -7 -94 -10 -120 -9 -290 -34 -413 -60 -182
-39 -444 -117 -547 -161 -16 -7 -70 -30 -120 -51 -113 -47 -303 -145 -425
-219 -705 -427 -1237 -1088 -1505 -1869 -15 -44 -28 -87 -30 -95 -2 -9 -13
-47 -25 -86 -19 -66 -52 -202 -64 -270 -3 -16 -8 -43 -11 -60 -3 -16 -8 -37
-10 -45 -2 -8 -7 -42 -11 -75 -3 -33 -8 -68 -10 -78 -25 -137 -25 -678 1 -839
2 -13 6 -45 10 -73 3 -27 15 -97 26 -155 161 -842 610 -1578 1287 -2109 338
-265 765 -486 1157 -597 56 -16 164 -45 180 -49 11 -2 61 -12 110 -23 50 -11
128 -25 175 -32 47 -6 96 -14 110 -16 128 -19 553 -26 725 -11 188 16 358 46
567 98 116 29 384 115 403 129 6 4 21 11 35 15 56 16 263 114 372 175 588 329
1055 793 1377 1368 80 144 189 381 221 482 5 14 20 57 34 95 22 57 88 289 101
354 2 9 8 36 13 61 6 25 13 63 16 85 4 22 11 65 16 95 41 240 48 693 14 958
-39 311 -142 696 -244 919 -11 24 -20 45 -20 48 0 15 -127 265 -184 363 -534
914 -1444 1536 -2486 1701 -36 5 -92 13 -125 16 -33 4 -71 9 -85 12 -28 5
-536 14 -541 9z"/>
</g>
</svg>
